<svg xmlns="http://www.w3.org/2000/svg" width="24" height="24" viewBox="0 0 24 24">
	<path fill="currentColor" d="M12 2C6.486 2 2 6.486 2 12C2 17.514 6.486 22 12 22C17.514 22 22 17.514 22 12C22 6.486 17.514 2 12 2ZM12 20C7.589 20 4 16.411 4 12C4 7.589 7.589 4 12 4C16.411 4 20 7.589 20 12C20 16.411 16.411 20 12 20ZM8 11C7.448 11 7 10.552 7 10C7 9.448 7.448 9 8 9C8.552 9 9 9.448 9 10C9 10.552 8.552 11 8 11ZM16 11C15.448 11 15 10.552 15 10C15 9.448 15.448 9 16 9C16.552 9 17 9.448 17 10C17 10.552 16.552 11 16 11ZM14.555 15.832C14.792 16.254 14.454 16.707 14.003 16.609C13.174 16.423 12.613 16.25 12 16.25C11.387 16.25 10.825 16.423 9.997 16.609C9.546 16.707 9.208 16.254 9.445 15.832C9.727 15.331 10.369 14.75 12 14.75C13.631 14.75 14.273 15.331 14.555 15.832Z"></path>
</svg>
